<svg xmlns="http://www.w3.org/2000/svg" viewBox="0 0 110.01 27.24"><defs><style>.cls-1{fill:#ec1c24;}.cls-1,.cls-4{fill-rule:evenodd;}.cls-2{fill:#e5e6e7;}.cls-3{fill:#02205f;}.cls-4{fill:#929497;}</style></defs><title>avtoritet</title><g id="Layer_2" data-name="Layer 2"><g id="Layer_1-2" data-name="Layer 1"><polygon class="cls-1" points="0 14.95 108.45 14.95 108.45 15.99 0 15.99 0 14.95 0 14.95"/><path class="cls-2" d="M14.06,10,9.06.2H5.14L.14,10H3.61L4.44,8.2H9.59L10.44,10ZM8.5,5.89h-3L7,2.77H7L8.5,5.89ZM20.87,10,25.73.2H22.27L19.16,7.14H19.1L16,.2H12.34L17.21,10Zm13.51,0V2.6H38.1V.2H27.44V2.6h3.72V10ZM52.53,5.07A4.49,4.49,0,0,0,50.68,1a8.8,8.8,0,0,0-4.8-1,8.83,8.83,0,0,0-4.8,1,4.51,4.51,0,0,0-1.84,4.12,4.47,4.47,0,0,0,1.84,4.1,8.55,8.55,0,0,0,4.8,1,8.7,8.7,0,0,0,4.8-1,4.5,4.5,0,0,0,1.85-4.12Zm-3.29.09c0,2-1.13,2.57-3.36,2.57S42.53,6.93,42.53,5s1.11-2.56,3.35-2.56,3.36.79,3.36,2.72ZM66.63,10,63.8,6.5a3.82,3.82,0,0,0,1-.41,2.74,2.74,0,0,0,1.27-2.62A2.79,2.79,0,0,0,65,1C64,.3,62.58.2,60.67.2H55.32V10h3.23V6.86h1.77L62.74,10ZM62.81,3.56c0,.87-.5,1.1-2.16,1.1h-2.1V2.53h2.06c1.4,0,2.2,0,2.2,1Zm10,6.43V.2H69.57V10Zm9.46,0V2.6H86V.2H75.31V2.6H79V10Zm15.31,0V7.57H91.71V6.17h5.18V3.83H91.71V2.6h5.61V.2H88.48V10Zm8.73,0V2.6H110V.2H99.35V2.6h3.71V10Z"/><polygon class="cls-1" points="0 14.95 109.92 14.95 109.92 15.99 0 15.99 0 14.95 0 14.95"/><path class="cls-3" d="M14.06,10,9.06.2H5.14L.14,10H3.61L4.44,8.2H9.59L10.44,10ZM8.5,5.89h-3L7,2.77H7L8.5,5.89ZM20.87,10,25.73.2H22.27L19.16,7.14H19.1L16,.2H12.34L17.21,10Zm13.51,0V2.6H38.1V.2H27.44V2.6h3.72V10ZM52.53,5.07A4.49,4.49,0,0,0,50.68,1a8.8,8.8,0,0,0-4.8-1,8.83,8.83,0,0,0-4.8,1,4.51,4.51,0,0,0-1.84,4.12,4.47,4.47,0,0,0,1.84,4.1,8.55,8.55,0,0,0,4.8,1,8.7,8.7,0,0,0,4.8-1,4.5,4.5,0,0,0,1.85-4.12Zm-3.29.09c0,2-1.13,2.57-3.36,2.57S42.53,6.93,42.53,5s1.11-2.56,3.35-2.56,3.36.79,3.36,2.72ZM66.63,10,63.8,6.5a3.82,3.82,0,0,0,1-.41,2.74,2.74,0,0,0,1.27-2.62A2.79,2.79,0,0,0,65,1C64,.3,62.58.2,60.67.2H55.32V10h3.23V6.86h1.77L62.74,10ZM62.81,3.56c0,.87-.5,1.1-2.16,1.1h-2.1V2.53h2.06c1.4,0,2.2,0,2.2,1Zm10,6.43V.2H69.57V10Zm9.46,0V2.6H86V.2H75.31V2.6H79V10Zm15.31,0V7.57H91.71V6.17h5.18V3.83H91.71V2.6h5.61V.2H88.48V10Zm8.73,0V2.6H110V.2H99.35V2.6h3.71V10Z"/><path class="cls-3" d="M7.69,26.81V23.3H3.9v1.51H5.66v.73a13.8,13.8,0,0,1-1.69.1c-1.36,0-1.7-.6-1.7-1.78,0-1.41.67-1.78,2.36-1.78.73,0,1.91,0,2.74.1V20.51c-1.06-.07-2-.11-3-.11a5.24,5.24,0,0,0-3.11.68A3.21,3.21,0,0,0,.06,23.8a3.42,3.42,0,0,0,1,2.76,4.16,4.16,0,0,0,2.64.68,19.63,19.63,0,0,0,4-.43Zm25.54.3-1.9-2.34a2.62,2.62,0,0,0,.68-.28,1.86,1.86,0,0,0,.85-1.76,1.86,1.86,0,0,0-.73-1.65,5,5,0,0,0-2.91-.55H25.63v6.58H27.8V25H29l1.63,2.1Zm-2.57-4.32c0,.58-.33.74-1.45.74H27.8V22.1h1.38c.95,0,1.48,0,1.48.69Zm28.62,1A3,3,0,0,0,58,21.05a5.93,5.93,0,0,0-3.23-.65,5.93,5.93,0,0,0-3.23.65,3,3,0,0,0-1.24,2.76,3,3,0,0,0,1.24,2.76,5.75,5.75,0,0,0,3.23.67A5.84,5.84,0,0,0,58,26.57a3,3,0,0,0,1.24-2.77Zm-2.21.06c0,1.33-.76,1.73-2.26,1.73s-2.26-.54-2.26-1.83S53.3,22,54.81,22s2.26.53,2.26,1.82Zm23.59,3.38a4.62,4.62,0,0,0,3-.72,2.79,2.79,0,0,0,.82-2.42V20.53H82.36V24a1.77,1.77,0,0,1-.28,1.07,1.65,1.65,0,0,1-1.4.48,1.69,1.69,0,0,1-1.4-.5A1.83,1.83,0,0,1,79,24V20.53H76.81V24.1a2.83,2.83,0,0,0,.8,2.42,4.65,4.65,0,0,0,3,.72ZM109.88,23a2.16,2.16,0,0,0-.72-1.82,4.72,4.72,0,0,0-2.92-.6h-3.68v6.58h2.17V25.46h1c1.79,0,2.61-.08,3.33-.57a2.11,2.11,0,0,0,.86-1.94Zm-2.2,0c0,.72-.42.92-1.53.92h-1.42V22.1h1.39c.94,0,1.56,0,1.56.87Z"/><path class="cls-4" d="M16.17,22.47a.92.92,0,1,1-.91.92.92.92,0,0,1,.91-.92Z"/><path class="cls-4" d="M42.62,22.47a.92.92,0,1,1-.92.92.92.92,0,0,1,.92-.92Z"/><path class="cls-4" d="M69.06,22.47a.92.92,0,1,1-.91.92.92.92,0,0,1,.91-.92Z"/><path class="cls-4" d="M95.51,22.47a.92.92,0,1,1-.91.92.92.92,0,0,1,.91-.92Z"/></g></g></svg>