<svg xmlns="http://www.w3.org/2000/svg" viewBox="0 0 110 19.39"><defs><style>.cls-1{fill:#231f20;}.cls-2{fill:#ec1651;}.cls-3{fill:#90278e;}.cls-4{fill:#ffca05;}</style></defs><title>AWV</title><g id="Layer_2" data-name="Layer 2"><g id="Layer_1-2" data-name="Layer 1"><path class="cls-1" d="M82,3.28V6.43H80.29V0h.6l3.23,3.16V0H85.8V6.44h-.59Z"/><path class="cls-1" d="M93.69,1.49H91.32V2.4H93.5V3.85H91.32V5h2.45V6.43H89.7V0h4Z"/><path class="cls-1" d="M99.68,4.42l-1.17,2H96.75V6.18L98.81,3,97,.27V0h1.7l1,1.66h0l1-1.66h1.69V.27L100.6,3l2.07,3.14v.25h-1.76l-1.17-2Z"/><path class="cls-1" d="M105.24,1.49V0H110V1.49h-1.56V6.43h-1.62V1.49Z"/><path class="cls-2" d="M38.66,19.39H28.79V0h9.87C51.29.06,51.29,19.33,38.66,19.39Z"/><polygon class="cls-3" points="48.3 0 56.73 19.39 65.67 19.39 57.24 0 48.3 0"/><rect class="cls-3" x="65.34" width="8.89" height="6.43"/><polygon class="cls-4" points="17.51 0 8.57 0 16.99 19.39 25.93 19.39 17.51 0"/><rect class="cls-4" y="12.96" width="8.89" height="6.43"/></g></g></svg>