<svg xmlns="http://www.w3.org/2000/svg" width="41.535" height="41.538" viewBox="0 0 41.535 41.538"><defs><style>.a{fill:none;stroke:#ffb15b;stroke-linecap:round;stroke-linejoin:round;stroke-width:1.5px;}</style></defs><g transform="translate(-225.416 -229.774)"><path class="a" d="M253.514,240.24v9.024a2.322,2.322,0,0,1-2.32,2.32H234.2a2.325,2.325,0,0,1-2.336-2.32V240.24a2.325,2.325,0,0,1,2.336-2.32h16.992A2.322,2.322,0,0,1,253.514,240.24Z" transform="translate(3.414 4.422)"/><line class="a" y1="0.011" transform="translate(243.101 261.094)"/><path class="a" d="M247.318,249.64H235.126" transform="translate(5.37 11.454)"/><path class="a" d="M238.2,246.46l-1.44,5.088v.016" transform="translate(6.348 9.546)"/><line class="a" x1="1.44" y1="5.088" transform="translate(248.624 256.006)"/><path class="a" d="M244.544,256.006h0a13.436,13.436,0,0,0-9.392,3.944l-2.126,2.131a2.211,2.211,0,0,1-3.378-.264,20,20,0,1,1,36.36-8.642c-1.061,8.315-9.154,16.295-17.483,17.24a19.966,19.966,0,0,1-14.319-3.837" transform="translate(0 0)"/></g></svg>