<svg xmlns="http://www.w3.org/2000/svg" width="41.541" height="41.542" viewBox="0 0 41.541 41.542"><defs><style>.a{fill:none;stroke:#ffb15b;stroke-linecap:round;stroke-linejoin:round;stroke-width:1.5px;}</style></defs><g transform="translate(-130.047 -228.12)"><path class="a" d="M143.461,236.92v.965a1.769,1.769,0,0,0,1.768,1.768h0a1.769,1.769,0,0,1,1.77,1.77h0a1.769,1.769,0,0,0,1.768,1.768h0a1.769,1.769,0,0,1,1.77,1.77h0a1.769,1.769,0,0,0,1.768,1.768h.968" transform="translate(7.592 4.818)"/><path class="a" d="M142.781,250.559l2.8-.752,5.184-1.392a8.248,8.248,0,0,0,3.584-2.064l8.544-8.56" transform="translate(7.184 5.34)"/><path class="a" d="M140.741,251.7l.752-2.8,1.392-5.168a8.212,8.212,0,0,1,2.064-3.6l9.68-9.68" transform="translate(5.96 0.936)"/><line class="a" x1="10.279" y2="10.279" transform="translate(157.573 238.283)"/><line class="a" x1="10.595" y2="10.595" transform="translate(154.073 234.395)"/><path class="a" d="M141.19,243.731,140,248.177l4.445-1.187a4.566,4.566,0,0,0-3.258-3.259Z" transform="translate(5.517 8.904)"/><path class="a" d="M145.512,257.083H135.425a4.078,4.078,0,0,1-3.941-3.016,20.359,20.359,0,0,1-.067-10.144,20.029,20.029,0,1,1,3.974,17.7" transform="translate(0)"/></g></svg>