<svg xmlns="http://www.w3.org/2000/svg" width="20" height="20" viewBox="0 0 20 20"><defs><style>.a{fill:#ffb15b;}</style></defs><g transform="translate(-1180 -491)"><path class="a" d="M1208.6,492.29a4.275,4.275,0,0,0-6.12,0l-4.312,4.389a4.458,4.458,0,0,0-.375,5.773h0a4.4,4.4,0,0,0,.375.434l.6-.59a3.548,3.548,0,0,1-.3-.351l-.336.253.336-.253a3.61,3.61,0,0,1,.3-4.676l4.313-4.389a3.432,3.432,0,0,1,4.917,0,3.607,3.607,0,0,1-.009,5.037l-2.882,3.118.618.572,2.874-3.108A4.45,4.45,0,0,0,1208.6,492.29Z" transform="translate(-9.865)"/><path class="a" d="M1190.94,511.433a3.6,3.6,0,0,1,0,5.027l-4.161,4.235a3.432,3.432,0,0,1-4.917,0,3.6,3.6,0,0,1,0-5.032l2.776-2.918-.61-.58-2.772,2.913a4.45,4.45,0,0,0,0,6.208,4.275,4.275,0,0,0,6.12,0l4.161-4.235a4.45,4.45,0,0,0,0-6.208Z" transform="translate(0 -11.575)"/></g></svg>