<svg xmlns="http://www.w3.org/2000/svg" viewBox="0 0 110 16.63"><defs><style>.cls-1{fill:#90191c;}.cls-2{fill:#353535;}</style></defs><title>orient</title><g id="Layer_2" data-name="Layer 2"><g id="Layer_1-2" data-name="Layer 1"><path class="cls-1" d="M0,4.56A4.56,4.56,0,0,1,4.7,0a4.56,4.56,0,1,1,0,9.12A4.52,4.52,0,0,1,0,4.56Zm7.34,0A2.68,2.68,0,0,0,4.67,1.79,2.64,2.64,0,0,0,2,4.56,2.68,2.68,0,0,0,4.7,7.33,2.64,2.64,0,0,0,7.34,4.56Z"/><path class="cls-1" d="M11.1.15h4a3.52,3.52,0,0,1,2.57.9,2.78,2.78,0,0,1,.75,2,2.74,2.74,0,0,1-1.89,2.73L18.72,9H16.45L14.54,6.15H13V9H11.1ZM15,4.43c.95,0,1.49-.5,1.49-1.27S15.91,1.9,15,1.9H13V4.43Z"/><path class="cls-1" d="M20.29.15h1.94V9H20.29Z"/><path class="cls-1" d="M24.44.15h6.65V1.88H26.36V3.67h4.16V5.39H26.36V7.24h4.79V9H24.44Z"/><path class="cls-1" d="M32.88.15h1.78L38.8,5.58V.15h1.91V9H39.06L34.79,3.36V9H32.88Z"/><path class="cls-1" d="M44.88,1.94H42.2V.15h7.3V1.94H46.82V9H44.88Z"/><path class="cls-1" d="M54.77.15h2.09l2.32,3.73L61.49.15h2.09V9H61.66V3.21L59.18,7h0L56.67,3.25V9h-1.9Z"/><path class="cls-1" d="M65.31,4.56A4.69,4.69,0,1,1,70,9.12,4.56,4.56,0,0,1,65.31,4.56Zm7.34,0A2.68,2.68,0,0,0,70,1.79a2.64,2.64,0,0,0-2.64,2.77A2.68,2.68,0,0,0,70,7.33,2.64,2.64,0,0,0,72.65,4.56Z"/><path class="cls-1" d="M78.08,1.94H75.4V.15h7.3V1.94H80V9H78.08Z"/><path class="cls-1" d="M83.42,4.56A4.69,4.69,0,1,1,88.1,9.12,4.56,4.56,0,0,1,83.42,4.56Zm7.35,0A2.68,2.68,0,0,0,88.1,1.79a2.64,2.64,0,0,0-2.65,2.77,2.68,2.68,0,0,0,2.67,2.77A2.65,2.65,0,0,0,90.77,4.56Z"/><path class="cls-1" d="M94.52.15h4a3.52,3.52,0,0,1,2.57.9,2.79,2.79,0,0,1,.76,2A2.74,2.74,0,0,1,100,5.82L102.14,9H99.87L98,6.15h-1.5V9H94.52Zm3.9,4.28c1,0,1.49-.5,1.49-1.27S99.33,1.9,98.39,1.9H96.46V4.43Z"/><path class="cls-1" d="M103,7.68l1.15-1.37a4,4,0,0,0,2.63,1.07c.79,0,1.27-.31,1.27-.86s-.3-.74-1.77-1.12c-1.78-.45-2.93-.94-2.93-2.72,0-1.6,1.29-2.65,3.09-2.65a5.11,5.11,0,0,1,3.28,1.12l-1,1.46a4.15,4.15,0,0,0-2.29-.87c-.75,0-1.14.34-1.14.79s.38.77,1.9,1.16C109,4.16,110,4.8,110,6.36c0,1.75-1.34,2.73-3.24,2.73A5.59,5.59,0,0,1,103,7.68Z"/><path class="cls-2" d="M37.15,16.12,37.3,16a1.55,1.55,0,0,0,1.12.46c.47,0,.79-.26.79-.63s-.17-.52-.88-.67-1.06-.4-1.06-.89a.91.91,0,0,1,1-.82,1.56,1.56,0,0,1,1.07.38l-.14.19a1.34,1.34,0,0,0-.94-.36c-.46,0-.76.27-.76.6s.17.53.91.69,1,.4,1,.87a.92.92,0,0,1-1,.85A1.75,1.75,0,0,1,37.15,16.12Z"/><path class="cls-2" d="M41.11,13.45h.23V14.9h2V13.45h.23v3.13h-.23V15.11h-2v1.47h-.23Z"/><path class="cls-2" d="M45.26,15a1.58,1.58,0,1,1,1.57,1.62A1.58,1.58,0,0,1,45.26,15Zm2.9,0a1.33,1.33,0,1,0-1.32,1.41A1.34,1.34,0,0,0,48.16,15Z"/><path class="cls-2" d="M49.69,13.45H50l1,2.78.91-2.79H52L53,16.23l1-2.78h.24L53,16.6h-.19l-.92-2.72L51,16.6h-.19Z"/><path class="cls-2" d="M55.76,13.45h1.31a1.22,1.22,0,0,1,.88.31.8.8,0,0,1,.24.59c0,.52-.39.82-.92.89l1,1.34H58l-1-1.3H56v1.3h-.23ZM57,15.07c.53,0,.92-.26.92-.72s-.33-.69-.9-.69H56v1.41Z"/><path class="cls-2" d="M59.74,15a1.59,1.59,0,0,1,1.58-1.62A1.62,1.62,0,1,1,59.74,15Zm2.91,0a1.36,1.36,0,0,0-1.34-1.41A1.34,1.34,0,0,0,60,15a1.33,1.33,0,1,0,2.66,0Z"/><path class="cls-2" d="M64.44,15A1.58,1.58,0,1,1,66,16.63,1.58,1.58,0,0,1,64.44,15Zm2.9,0A1.33,1.33,0,1,0,66,16.42,1.34,1.34,0,0,0,67.34,15Z"/><path class="cls-2" d="M69.27,13.45h.22l1.26,1.85L72,13.45h.22v3.13H72V13.86l-1.24,1.8h0l-1.23-1.8v2.72h-.23Z"/></g></g></svg>