<svg xmlns="http://www.w3.org/2000/svg" xmlns:xlink="http://www.w3.org/1999/xlink" width="70.027" height="70" viewBox="0 0 70.027 70"><defs><style>.a{fill:url(#a);}.b{fill:url(#b);}.c{fill:#fff;}</style><linearGradient id="a" x1="-7.219" y1="4.905" x2="-7.029" y2="3.833" gradientUnits="objectBoundingBox"><stop offset="0" stop-color="#faae42"/><stop offset="1" stop-color="#ef3e31"/></linearGradient><linearGradient id="b" x1="0.598" y1="0.02" x2="0.436" y2="0.978" gradientUnits="objectBoundingBox"><stop offset="0" stop-color="#e39f3a"/><stop offset="1" stop-color="#d33929"/></linearGradient></defs><g transform="translate(0)"><path class="a" d="M15.838,0H54.612a16.345,16.345,0,0,1,5.5.93,15.527,15.527,0,0,1,10.008,12.2,18.859,18.859,0,0,1,.191,3.035V53.977a17.713,17.713,0,0,1-.3,3.609,15.555,15.555,0,0,1-10.527,11.7A16.438,16.438,0,0,1,54.584,70c-.738,0-38.855,0-39.43-.027a15.6,15.6,0,0,1-7.875-2.6A15.8,15.8,0,0,1,1.948,61.25,15.43,15.43,0,0,1,.389,54.441V15.559a14.515,14.515,0,0,1,1.449-6.7A15.526,15.526,0,0,1,7.116,2.707,15.316,15.316,0,0,1,14.963.055,4.56,4.56,0,0,1,15.838,0Z" transform="translate(-0.28)"/><path class="b" d="M59.063,57.258a10.682,10.682,0,0,0-.82-1.121A11.614,11.614,0,0,0,55.891,54,7.2,7.2,0,0,0,52.2,52.746a6.683,6.683,0,0,0-2.734.438,17.82,17.82,0,0,0-2.543,1.176c-.957.492-1.914.984-2.926,1.395A21.989,21.989,0,0,1,40.25,56.9a24.35,24.35,0,0,1-4.867.383,32.894,32.894,0,0,1-8.641-1.312,32.686,32.686,0,0,1-7.027-3.035,36.234,36.234,0,0,1-5.441-3.855,39.764,39.764,0,0,1-3.883-3.855c-.82-.957-1.613-1.969-2.352-3.008a12.754,12.754,0,0,1-.82-1.285h0L0,33.141V15.5A15.486,15.486,0,0,1,15.477,0H29.285L39.512,10.391h0c23.078,15.7,15.613,33,15.613,33S61.688,50.777,59.063,57.258Z"/><path class="c" d="M58.748,38C81.826,53.7,74.361,71,74.361,71s6.563,7.41,3.91,13.891c0,0-2.707-4.539-7.246-4.539-4.375,0-6.945,4.539-15.75,4.539C35.67,84.895,26.4,68.516,26.4,68.516c17.664,11.621,29.723,3.391,29.723,3.391C48.166,67.285,31.24,45.191,31.24,45.191,45.978,57.742,52.349,61.051,52.349,61.051c-3.8-3.145-14.465-18.512-14.465-18.512,8.531,8.641,25.484,20.7,25.484,20.7C68.181,49.895,58.748,38,58.748,38Z" transform="translate(-19.181 -27.609)"/></g></svg>