<svg xmlns="http://www.w3.org/2000/svg" width="20" height="20" viewBox="0 0 20 20"><defs><style>.a{fill:#ffb15b;}</style></defs><g transform="translate(-824 -5607)"><path class="a" d="M829.5,5613h-3.958c1.962-2.467,4.005-5,8.489-5a9,9,0,0,1,8.97,9h1a10,10,0,0,0-9.97-10c-4.767,0-7.072,2.625-9.03,5.075V5608.5h-1v5.5h5.5Z"/><path class="a" d="M838.5,5631H842s.438.01.433.015c-1.98,2.451-4.027,4.985-8.494,4.985a8.98,8.98,0,0,1-8.94-9h-1a9.981,9.981,0,0,0,9.94,10c4.774,0,7.081-2.653,9.06-5.1v3.6h1V5630h-5.5Z" transform="translate(0 -10)"/></g></svg>