<svg xmlns="http://www.w3.org/2000/svg" viewBox="0 0 110 32.14"><defs><style>.cls-1{fill:#e94b3d;}.cls-1,.cls-2{fill-rule:evenodd;}.cls-2,.cls-3{fill:#2196f3;}</style></defs><title>vclouds</title><g id="Layer_2" data-name="Layer 2"><g id="Layer_1-2" data-name="Layer 1"><path class="cls-1" d="M22.92,28c-2.07-2.37-7.78-8-9.41-9.36l.77-3c1.22,1,5.85,5.33,8.17,7.82,2.79-5.47,9.84-15.88,16-19.82l.46,2.79C33.25,10.81,26.53,20.47,22.92,28Z"/><path class="cls-2" d="M43.67,11.18a12.4,12.4,0,0,0-4.93-2.64c-.84.84-1.69,1.77-2.54,2.75a9.17,9.17,0,0,1,4.31,1.44Q38,14.83,38,19.19c0,3.66,1.17,6.18,3.5,7.59a9.21,9.21,0,0,1-6,2.22H9.64a6.32,6.32,0,1,1,0-12.64,6.14,6.14,0,0,1,.78.06A1.6,1.6,0,0,0,11.73,16a1.57,1.57,0,0,0,.43-1.32,9.23,9.23,0,0,1-.11-1.46,10.17,10.17,0,0,1,10.29-10A10.36,10.36,0,0,1,32,9.58c.76-.87,1.54-1.7,2.32-2.47A13.59,13.59,0,0,0,22.67,0H22A13.31,13.31,0,0,0,8.9,13.17v.08a9.45,9.45,0,0,0,.74,18.89H35.51a12.31,12.31,0,0,0,9.32-4.23h0a15,15,0,0,0,2.4.18,14.24,14.24,0,0,0,5-.83V24.39a11.83,11.83,0,0,1-4.78,1q-6.15,0-6.15-6.16,0-5.67,6.15-5.67a11.83,11.83,0,0,1,4.78,1V11.6a15.62,15.62,0,0,0-8.58-.42ZM43,27.47h0Zm-.81-.32h0Zm-1-14.93h0Zm1.57-.77h0Zm-.82.35h0Z"/><rect class="cls-3" x="54.05" y="10.89" width="3.17" height="17.09"/><path class="cls-2" d="M65.14,15.39q-6.21,0-6.22,6.31T65.14,28q6.21,0,6.21-6.3T65.14,15.39Zm0,10.19q-3,0-3-3.93t3-3.83q3,0,3,3.83T65.14,25.58Z"/><path class="cls-2" d="M81.11,24.19A5.15,5.15,0,0,1,78,25.42c-1.21,0-1.82-.7-1.82-2.08V15.43H73v8c0,3,1.28,4.55,3.85,4.55a7.55,7.55,0,0,0,4.58-1.6l.39,1.6h2.47V15.43H81.11Z"/><path class="cls-2" d="M94.51,16a6.43,6.43,0,0,0-2.59-.59c-4,0-6,2-6,6Q86,28,92.05,28a22.31,22.31,0,0,0,5.63-.75V10.89H94.51Zm0,8.93a7.79,7.79,0,0,1-2.34.35q-3.08,0-3.07-3.93,0-3.32,3-3.31a4.39,4.39,0,0,1,2.46.64Z"/><path class="cls-2" d="M105.82,20.39h-2q-1.5,0-1.5-1.26c0-.87.86-1.31,2.57-1.31a12.26,12.26,0,0,1,4.54.83V16a13.83,13.83,0,0,0-4.45-.71q-5.58,0-5.58,3.94,0,3.77,3.82,3.77h2.27c.92,0,1.37.41,1.37,1.25s-.68,1.31-2,1.31a12.94,12.94,0,0,1-4.83-.83v2.63a14.74,14.74,0,0,0,4.71.71q5.33,0,5.33-3.94Q110,20.39,105.82,20.39Z"/></g></g></svg>