<?xml version="1.0" standalone="no"?>
<!DOCTYPE svg PUBLIC "-//W3C//DTD SVG 20010904//EN"
 "http://www.w3.org/TR/2001/REC-SVG-20010904/DTD/svg10.dtd">
<svg version="1.0" xmlns="http://www.w3.org/2000/svg"
 width="1024.000000pt" height="1024.000000pt" viewBox="0 0 1024.000000 1024.000000"
 preserveAspectRatio="xMidYMid meet">
<metadata>
Created by potrace 1.11, written by Peter Selinger 2001-2013
</metadata>
<g transform="translate(0.000000,1024.000000) scale(0.100000,-0.100000)"
fill="#000000" stroke="none">
<path d="M0 5120 l0 -5120 5120 0 5120 0 0 5120 0 5120 -5120 0 -5120 0 0
-5120z m5547 2455 c482 -64 868 -246 1202 -570 397 -384 621 -827 712 -1405
18 -114 22 -192 26 -512 l5 -378 -1572 0 -1571 0 7 -22 c63 -207 241 -398 484
-519 235 -117 521 -173 880 -172 464 1 876 100 1329 319 95 46 175 84 177 84
2 0 4 -283 4 -629 l0 -629 -37 -30 c-21 -16 -72 -49 -113 -74 -372 -224 -834
-350 -1415 -388 -768 -49 -1375 94 -1909 452 -550 367 -893 902 -995 1548 -36
228 -43 578 -16 803 69 580 306 1069 711 1469 129 127 202 187 344 281 299
197 655 323 1050 371 163 20 549 20 697 1z m3041 -3670 c231 -55 430 -254 477
-480 40 -190 -4 -388 -117 -528 -92 -115 -223 -199 -364 -233 -106 -26 -297
-24 -399 5 -208 58 -373 204 -443 393 -43 115 -48 302 -11 418 59 185 229 350
424 414 117 38 301 42 433 11z"/>
<path d="M4980 6365 c-122 -25 -238 -80 -338 -162 -141 -116 -264 -347 -297
-560 l-7 -43 773 0 772 0 -7 74 c-31 346 -267 624 -584 691 -82 18 -225 18
-312 0z"/>
</g>
</svg>
